<?xml version="1.0" standalone="no"?>
<!DOCTYPE svg PUBLIC "-//W3C//DTD SVG 20010904//EN"
 "http://www.w3.org/TR/2001/REC-SVG-20010904/DTD/svg10.dtd">
<svg version="1.0" xmlns="http://www.w3.org/2000/svg"
 width="1159.000000pt" height="1159.000000pt" viewBox="0 0 1159.000000 1159.000000"
 preserveAspectRatio="xMidYMid meet">
<metadata>
Created by potrace 1.11, written by Peter Selinger 2001-2013
</metadata>
<g transform="translate(0.000000,1159.000000) scale(0.100000,-0.100000)"
fill="#000000" stroke="none">
<path d="M8988 11424 c-285 -43 -515 -256 -572 -532 -91 -434 248 -845 683
-828 104 4 130 9 208 35 276 93 463 360 463 661 -1 334 -266 632 -593 665 -34
4 -71 8 -82 9 -11 2 -59 -3 -107 -10z"/>
<path d="M5509 10476 c-2 -2 -47 -7 -99 -11 -52 -3 -108 -8 -125 -9 -75 -9
-132 -16 -155 -21 -14 -2 -43 -7 -65 -10 -487 -68 -1085 -278 -1551 -545 -203
-117 -507 -328 -640 -445 -7 -5 -38 -32 -70 -60 -154 -130 -364 -345 -520
-530 -238 -281 -505 -710 -648 -1037 -9 -21 -22 -53 -30 -71 -8 -18 -29 -68
-47 -112 -17 -44 -34 -84 -37 -90 -3 -5 59 56 139 136 150 153 226 221 369
333 47 36 90 70 95 74 6 4 39 28 75 52 36 24 67 47 68 52 2 4 7 8 12 8 5 0 35
17 67 38 202 134 490 285 743 391 69 29 134 57 145 62 75 34 420 151 574 194
107 30 336 87 426 106 33 7 62 13 65 14 3 1 25 5 50 9 25 5 54 10 65 12 116
24 399 67 520 79 28 2 75 7 105 10 30 3 73 7 95 9 150 15 314 20 620 21 355 0
493 -5 736 -29 142 -14 165 -17 189 -21 14 -3 46 -7 72 -10 26 -3 64 -8 85
-11 21 -3 47 -7 58 -9 11 -1 52 -8 90 -15 39 -6 84 -14 100 -16 17 -3 64 -12
105 -21 41 -8 94 -19 117 -24 23 -4 82 -18 130 -30 48 -11 95 -22 103 -24 96
-21 424 -122 570 -175 63 -23 139 -51 169 -62 170 -61 534 -236 736 -353 214
-123 483 -315 661 -470 38 -33 129 -120 203 -195 74 -74 132 -128 129 -120
-176 465 -474 972 -779 1325 -230 266 -471 495 -709 674 -52 39 -100 75 -105
79 -6 5 -64 45 -130 89 -363 243 -750 428 -1173 560 -78 24 -150 46 -160 48
-9 2 -53 12 -97 24 -44 11 -96 23 -115 26 -19 3 -44 9 -55 12 -11 3 -29 7 -40
9 -11 1 -45 7 -75 13 -30 5 -73 13 -94 16 -21 3 -48 7 -60 10 -12 2 -42 7 -68
10 -27 3 -67 7 -90 10 -24 3 -68 8 -98 11 -63 7 -645 15 -651 10z"/>
<path d="M1607 10343 c-126 -28 -236 -103 -304 -208 -58 -88 -74 -136 -87
-258 -8 -74 27 -198 85 -297 22 -38 98 -110 157 -147 57 -37 180 -73 247 -73
107 0 247 52 329 122 103 87 168 223 172 359 5 143 -39 259 -136 360 -121 125
-298 180 -463 142z"/>
<path d="M8280 7123 c-110 -38 -173 -118 -172 -218 0 -65 23 -116 68 -153 92
-76 241 -62 317 28 25 29 57 114 57 149 0 69 -57 151 -125 182 -38 18 -112 24
-145 12z"/>
<path d="M1640 6923 c0 -6 -208 -1046 -225 -1124 -2 -9 -6 -33 -9 -53 -3 -19
-11 -57 -17 -83 -14 -64 -16 -74 -23 -117 -3 -19 -11 -57 -17 -83 -6 -27 -13
-61 -16 -78 -2 -16 -11 -61 -20 -100 -8 -38 -17 -82 -19 -98 l-5 -28 293 2
c202 0 321 5 383 15 415 66 687 313 803 729 32 115 37 137 49 245 9 82 9 249
0 317 -29 215 -176 373 -404 434 -70 20 -112 22 -425 26 -192 3 -348 1 -348
-4z m640 -301 c144 -56 198 -168 187 -388 -18 -342 -143 -602 -345 -717 -95
-54 -153 -68 -306 -74 l-138 -6 7 44 c9 56 10 59 28 149 9 41 18 87 21 103 3
15 7 35 10 45 3 9 7 33 10 52 3 19 21 114 41 210 19 96 37 184 39 195 2 11 16
76 30 145 13 69 27 136 30 150 2 14 9 44 14 67 5 23 7 45 3 49 -3 3 66 4 154
2 132 -4 170 -9 215 -26z"/>
<path d="M7830 6546 c-47 -13 -115 -37 -152 -54 l-68 -31 0 -126 0 -125 38 16
c151 66 231 88 290 82 84 -10 108 -48 99 -161 -3 -39 -8 -81 -10 -92 -6 -23
-63 -306 -73 -356 -25 -135 -30 -184 -28 -254 6 -214 113 -306 359 -311 82 -1
129 3 184 17 76 20 220 77 222 88 1 3 2 59 3 124 2 85 -1 117 -10 117 -6 0
-36 -11 -65 -24 -90 -40 -186 -64 -244 -63 -109 4 -131 71 -89 277 13 63 25
126 28 140 2 14 7 36 10 50 3 14 8 36 10 50 4 22 17 88 30 146 23 108 23 247
1 314 -20 61 -75 125 -134 155 -97 49 -262 57 -401 21z"/>
<path d="M3649 6556 c-2 -2 -22 -7 -44 -10 -99 -15 -215 -68 -310 -139 -165
-124 -276 -317 -331 -572 -11 -55 -13 -279 -3 -330 30 -138 119 -252 243 -311
110 -51 185 -63 371 -58 88 2 171 6 185 8 14 2 48 7 75 11 61 8 175 31 180 37
4 3 7 140 6 221 -1 34 -3 38 -21 32 -11 -3 -32 -8 -47 -11 -16 -3 -44 -9 -63
-14 -90 -23 -344 -33 -423 -17 -120 23 -190 113 -191 243 -1 40 1 74 4 77 3 3
95 7 205 10 110 3 209 7 220 10 11 2 43 8 70 12 149 21 320 103 384 184 59 74
75 125 75 241 1 92 -2 111 -24 155 -47 97 -138 165 -268 201 -51 15 -283 30
-293 20z m182 -271 c59 -29 82 -64 83 -123 1 -62 -18 -98 -69 -127 -72 -42
-148 -56 -338 -62 l-177 -6 14 40 c49 139 143 242 257 282 73 26 175 24 230
-4z"/>
<path d="M5256 6544 c-105 -27 -241 -111 -305 -186 -13 -16 -32 -39 -42 -51
-18 -22 -19 -20 -13 101 l6 122 -136 0 -136 0 -1 -32 c0 -18 -2 -40 -3 -48 -3
-13 -6 -43 -21 -200 -3 -25 -7 -61 -10 -80 -3 -19 -7 -55 -10 -80 -13 -113
-29 -203 -115 -620 -33 -162 -60 -298 -60 -302 0 -5 74 -8 165 -8 91 0 165 3
165 8 0 4 11 59 24 122 14 63 27 131 30 150 10 65 66 325 81 377 19 66 72 167
129 246 148 207 338 280 392 150 19 -44 18 -85 -7 -205 -11 -57 -23 -116 -26
-133 -2 -16 -23 -118 -45 -225 -21 -107 -41 -206 -44 -220 -3 -14 -12 -59 -20
-100 -9 -41 -18 -86 -20 -100 -2 -14 -6 -35 -9 -47 l-5 -23 165 0 c163 0 165
0 169 23 7 32 27 128 32 154 2 13 25 123 50 245 25 123 47 234 50 248 2 14 7
36 10 50 3 14 8 34 10 45 1 11 6 34 9 50 23 114 32 194 29 252 -11 216 -136
331 -360 331 -43 -1 -101 -6 -128 -14z"/>
<path d="M6750 6535 c-36 -12 -84 -31 -107 -43 -46 -24 -148 -104 -174 -137
-9 -11 -26 -31 -38 -45 l-20 -25 5 123 6 122 -136 0 -136 0 -1 -32 c0 -18 -2
-41 -4 -51 -2 -9 -6 -50 -10 -90 -6 -70 -22 -208 -41 -349 -3 -24 -34 -189
-70 -368 -36 -179 -67 -336 -70 -350 -2 -14 -7 -36 -10 -50 -3 -14 -8 -37 -11
-52 l-4 -28 164 0 165 0 6 33 c7 35 16 76 20 92 1 6 7 33 11 60 5 28 10 52 10
55 2 6 16 78 20 100 28 146 67 316 83 355 94 236 297 439 424 422 50 -7 75
-29 89 -80 13 -48 8 -95 -25 -257 -35 -176 -37 -183 -40 -205 -2 -11 -25 -123
-51 -250 -26 -126 -49 -241 -51 -255 -2 -14 -6 -35 -9 -47 l-5 -23 164 0 c182
0 167 -6 180 70 3 19 8 44 10 55 5 22 104 505 112 545 3 14 16 80 30 147 13
68 26 151 29 185 4 74 -15 179 -44 236 -29 57 -102 117 -169 140 -83 28 -216
27 -302 -3z"/>
<path d="M9645 6544 c-241 -42 -401 -153 -448 -310 -22 -74 -15 -176 17 -247
53 -114 153 -185 360 -256 202 -70 250 -108 240 -190 -17 -137 -215 -193 -494
-141 -150 28 -153 29 -229 55 -49 16 -71 20 -73 12 -4 -10 -3 -260 1 -278 2
-10 31 -20 76 -25 22 -3 45 -7 52 -9 36 -12 179 -20 343 -20 217 0 300 15 428
76 170 81 257 216 253 391 -3 168 -109 274 -363 363 -166 58 -192 70 -231 105
-44 39 -53 79 -28 135 21 47 77 87 141 102 70 16 309 7 417 -16 56 -11 109
-24 117 -27 14 -5 16 10 16 130 0 75 -3 136 -7 137 -5 0 -19 2 -33 5 -158 25
-439 29 -555 8z"/>
<path d="M1529 4460 c15 -43 51 -131 70 -174 10 -23 31 -70 47 -106 15 -36 59
-125 97 -199 286 -559 680 -1041 1197 -1465 98 -80 368 -268 481 -335 383
-229 775 -394 1194 -506 123 -32 331 -77 420 -90 22 -4 67 -10 100 -15 33 -5
87 -12 120 -15 33 -4 71 -8 85 -10 51 -9 290 -19 435 -18 213 0 372 10 560 34
138 18 149 19 195 29 25 5 65 12 90 16 25 5 47 8 50 9 15 3 86 19 90 20 3 1
21 5 40 9 89 20 306 82 415 118 558 189 1064 479 1525 873 223 191 540 537
696 760 53 75 224 334 224 338 0 2 23 44 51 93 74 128 187 359 247 506 29 70
52 130 52 133 0 3 -55 -51 -122 -120 -411 -425 -1001 -800 -1628 -1035 -19 -7
-48 -19 -65 -26 -284 -118 -946 -287 -1330 -338 -22 -3 -71 -10 -110 -15 -38
-6 -97 -13 -130 -16 -33 -3 -70 -8 -81 -10 -12 -2 -61 -6 -110 -10 -49 -4
-105 -9 -124 -11 -232 -22 -818 -22 -1085 1 -27 2 -81 7 -120 10 -80 7 -104 9
-275 30 -106 13 -186 26 -395 61 -16 3 -102 21 -190 40 -88 19 -169 37 -180
39 -11 3 -69 18 -130 34 -949 253 -1727 675 -2276 1236 -54 55 -107 111 -118
125 l-21 25 9 -25z"/>
<path d="M2328 1795 c-2 -2 -23 -5 -48 -7 -108 -12 -247 -65 -369 -142 -56
-36 -191 -169 -223 -221 -156 -252 -192 -505 -107 -759 152 -454 616 -693
1078 -555 294 88 527 349 587 659 15 73 21 270 10 288 -3 5 -8 28 -11 50 -10
84 -67 223 -129 312 -28 41 -41 58 -93 115 -97 109 -290 214 -448 247 -46 9
-240 19 -247 13z"/>
</g>
</svg>
